0.06m3min_grf.mot
version=1
nRows=22
nColumns 19
inDegrees=yes
endheader
time	1_ground_force_vx	1_ground_force_vy	1_ground_force_vz	1_ground_force_px	1_ground_force_py	1_ground_force_pz	1_ground_torque_x	1_ground_torque_y	1_ground_torque_z	2_ground_force_vx	2_ground_force_vy	2_ground_force_vz	2_ground_force_px	2_ground_force_py	2_ground_force_pz	2_ground_torque_x	2_ground_torque_y	2_ground_torque_z
            1.253500	           10.912763	          897.192698	          -40.157324	           -0.224293	            0.006267	           -0.415294	            0.034113	            2.804573	           -0.125530	           -5.176905	          620.630639	           36.614501	           -0.196763	            0.005657	           -0.665193	            0.026117	           -3.131034	           -0.184717
            1.254000	           11.005791	          893.586223	          -39.897875	           -0.224237	            0.006267	           -0.415130	            0.033221	            2.697291	           -0.120432	           -5.307814	          617.870638	           35.853856	           -0.196643	            0.005658	           -0.665321	            0.026648	           -3.101981	           -0.180002
            1.254500	           11.053337	          887.996847	          -39.646815	           -0.224117	            0.006268	           -0.415533	            0.032998	            2.650989	           -0.118360	           -5.245240	          613.453027	           35.321857	           -0.196368	            0.005657	           -0.664813	            0.025525	           -2.985293	           -0.171889
            1.255000	           10.733645	          885.111354	          -39.383251	           -0.224163	            0.006268	           -0.415364	            0.032790	            2.703892	           -0.120310	           -5.327847	          610.323910	           34.841446	           -0.196403	            0.005658	           -0.664931	            0.026082	           -2.987798	           -0.170564
            1.255500	           10.917708	          881.325780	          -39.399938	           -0.224131	            0.006267	           -0.415305	            0.034293	            2.768252	           -0.123756	           -5.313451	          606.274412	           34.310781	           -0.196265	            0.005657	           -0.664548	            0.025553	           -2.915621	           -0.165003
            1.256000	           10.690796	          876.816507	          -38.822563	           -0.223903	            0.006268	           -0.415481	            0.033616	            2.757021	           -0.122072	           -5.255488	          603.145634	           33.877239	           -0.196230	            0.005657	           -0.664573	            0.026092	           -2.994402	           -0.168188
            1.256500	           10.418254	          871.766263	          -38.201540	           -0.223891	            0.006268	           -0.415476	            0.031493	            2.635248	           -0.115479	           -5.477336	          599.647773	           33.348645	           -0.196026	            0.005657	           -0.664305	            0.026921	           -2.947249	           -0.163907
            1.257000	           10.237999	          866.534879	          -37.352242	           -0.223722	            0.006269	           -0.415732	            0.029743	            2.517389	           -0.108513	           -5.469607	          597.439971	           32.777623	           -0.195991	            0.005658	           -0.664653	            0.026997	           -2.948806	           -0.161782
            1.257500	           10.330571	          862.929190	          -37.276217	           -0.223768	            0.006269	           -0.415659	            0.029120	            2.432452	           -0.105075	           -5.454026	          593.023485	           31.917148	           -0.195704	            0.005658	           -0.664313	            0.026009	           -2.828000	           -0.152206
            1.258000	           10.149109	          859.321678	          -36.786802	           -0.223563	            0.006268	           -0.415436	            0.028423	            2.406534	           -0.103022	           -5.111599	          588.974501	           31.574056	           -0.195612	            0.005657	           -0.664075	            0.024772	           -2.854299	           -0.153015
            1.258500	           10.287706	          854.093773	          -36.763708	           -0.223471	            0.006269	           -0.415688	            0.029690	            2.464924	           -0.106100	           -5.382270	          586.028787	           31.094381	           -0.195690	            0.005658	           -0.664182	            0.025959	           -2.826433	           -0.149969
            1.259000	           10.197673	          849.405411	          -36.462582	           -0.223414	            0.006270	           -0.415783	            0.031104	            2.590780	           -0.111215	           -5.180414	          581.979585	           30.704422	           -0.195536	            0.005657	           -0.663940	            0.024929	           -2.800615	           -0.147757
            1.259500	           10.199262	          843.816222	          -36.257268	           -0.223262	            0.006270	           -0.415814	            0.030491	            2.522625	           -0.108393	           -5.401618	          578.297812	           30.128243	           -0.195114	            0.005659	           -0.663897	            0.025781	           -2.760074	           -0.143795
            1.260000	           10.064636	          840.387247	          -35.354495	           -0.223101	            0.006270	           -0.415754	            0.029090	            2.429000	           -0.102186	           -5.388449	          574.615880	           29.833533	           -0.195299	            0.005658	           -0.663821	            0.026381	           -2.813213	           -0.146059
            1.260500	           10.111954	          834.798264	          -35.195147	           -0.223106	            0.006270	           -0.415878	            0.027537	            2.273303	           -0.095843	           -5.139865	          570.567730	           29.161985	           -0.195013	            0.005657	           -0.663441	            0.024732	           -2.745487	           -0.140323
            1.261000	            9.930771	          830.289197	          -34.663745	           -0.222976	            0.006270	           -0.415957	            0.025750	            2.152892	           -0.089881	           -5.406528	          566.517004	           28.725296	           -0.194955	            0.005658	           -0.663449	            0.025429	           -2.664585	           -0.135108
            1.261500	           10.207188	          825.961890	          -34.453695	           -0.222904	            0.006270	           -0.415877	            0.027252	            2.205232	           -0.091988	           -5.252974	          562.836918	           28.055102	           -0.194817	            0.005658	           -0.663371	            0.024667	           -2.643014	           -0.131743
            1.262000	           10.208921	          821.453645	          -34.106172	           -0.222937	            0.006270	           -0.415939	            0.027708	            2.229481	           -0.092566	           -5.146311	          559.156877	           27.291071	           -0.194613	            0.005657	           -0.663056	            0.023892	           -2.595867	           -0.126698
            1.262500	           10.164898	          814.602619	          -33.906155	           -0.222754	            0.006272	           -0.416219	            0.029093	            2.331472	           -0.097043	           -4.994565	          556.027768	           27.045201	           -0.194775	            0.005658	           -0.663279	            0.023315	           -2.595593	           -0.126250
            1.263000	           10.257778	          811.176514	          -33.691786	           -0.222638	            0.006270	           -0.415893	            0.028551	            2.257793	           -0.093776	           -4.883729	          551.241376	           26.699581	           -0.194486	            0.005658	           -0.662993	            0.022841	           -2.578088	           -0.124871
            1.263500	            9.939833	          805.584905	          -32.935404	           -0.222521	            0.006271	           -0.416039	            0.025922	            2.100867	           -0.085892	           -4.869998	          547.376079	           26.169573	           -0.194186	            0.005659	           -0.662953	            0.023129	           -2.599653	           -0.124287
            1.264000	            9.895741	          800.355784	          -32.636711	           -0.222531	            0.006272	           -0.416254	            0.024244	            1.960850	           -0.079959	           -4.997400	          543.693807	           25.827995	           -0.194080	            0.005658	           -0.662695	            0.022629	           -2.461967	           -0.116955
